<svg width="32" height="32" viewBox="0 0 32 32" fill="none" xmlns="http://www.w3.org/2000/svg">
<path fill-rule="evenodd" clip-rule="evenodd" d="M15.9999 3.83991C9.28414 3.83991 3.83992 9.28414 3.83992 15.9999C3.83992 22.7156 9.28414 28.1599 15.9999 28.1599C22.7157 28.1599 28.16 22.7156 28.16 15.9999C28.16 9.28414 22.7157 3.83991 15.9999 3.83991ZM1.91992 15.9999C1.91992 8.22374 8.22374 1.91992 15.9999 1.91992C23.776 1.91992 30.08 8.22374 30.08 15.9999C30.08 23.7761 23.776 30.0799 15.9999 30.0799C8.22374 30.0799 1.91992 23.7761 1.91992 15.9999Z" fill="#020617"/>
<path fill-rule="evenodd" clip-rule="evenodd" d="M28.8001 16.8532H3.2002V15.1465H28.8001V16.8532Z" fill="#020617"/>
<path fill-rule="evenodd" clip-rule="evenodd" d="M15.146 28.8002V3.20022H16.8527V28.8002H15.146ZM22.1329 16.0002C22.1329 11.365 20.466 6.77949 17.1981 3.74755L18.2138 2.65283C21.844 6.02087 23.6262 11.0354 23.6262 16.0002C23.6262 20.965 21.844 25.9795 18.2138 29.3476L17.1981 28.2528C20.466 25.2209 22.1329 20.6354 22.1329 16.0002ZM8.53223 16.0002C8.53223 11.0426 10.2563 6.03069 13.7759 2.6609L14.8087 3.73955C11.6437 6.76978 10.0256 11.3579 10.0256 16.0002C10.0256 20.6426 11.6438 25.2307 14.8087 28.2609L13.776 29.3395C10.2564 25.9697 8.53225 20.9579 8.53223 16.0002Z" fill="#020617"/>
<path fill-rule="evenodd" clip-rule="evenodd" d="M15.9996 8.44385C20.6275 8.44385 25.3337 9.29961 28.5236 11.0817C28.8837 11.2828 29.0126 11.7376 28.8114 12.0977C28.6105 12.4577 28.1554 12.5865 27.7955 12.3854C24.9157 10.7767 20.4967 9.93718 15.9996 9.93718C11.5024 9.93718 7.08345 10.7767 4.20371 12.3854C3.84369 12.5865 3.38882 12.4577 3.18771 12.0977C2.98662 11.7376 3.11543 11.2828 3.47545 11.0817C6.66562 9.29961 11.3717 8.44385 15.9996 8.44385ZM15.9996 23.1468C20.6275 23.1468 25.3337 22.2909 28.5236 20.5089C28.8837 20.3078 29.0126 19.8529 28.8114 19.4929C28.6105 19.1329 28.1554 19.0041 27.7955 19.2052C24.9157 20.8138 20.4967 21.6534 15.9996 21.6534C11.5024 21.6534 7.08345 20.8138 4.20371 19.2052C3.84369 19.0041 3.38882 19.1329 3.18771 19.4929C2.98662 19.8529 3.11543 20.3078 3.47545 20.5089C6.66562 22.2909 11.3717 23.1468 15.9996 23.1468Z" fill="#020617"/>
</svg>
