<svg width="34" height="34" viewBox="0 0 34 34" fill="none" xmlns="http://www.w3.org/2000/svg">
<path d="M33 5.92308V15.7692L25 13.3077V3.46154L33 5.92308Z" fill="black"/>
<path d="M33 18.2308L9 10.8462L1 9V15.7692L25 23.1538L33 21V18.2308Z" fill="black"/>
<path d="M1 28.0769V18.2308L9 20.6923V30.5385L1 28.0769Z" fill="black"/>
<path d="M17 33L33 28.0769V21L25 23.1538L17 25.6154L13 24.3846V31.7692L17 33Z" fill="black"/>
<path d="M9 10.8462L17 8.1022L21 9.47418V2.23077L17 1L1 5.92308V9L9 10.8462Z" fill="black"/>
<path d="M9 10.8462L17 8.1022L21 9.47418V2.23077L17 1L1 5.92308V9M9 10.8462L33 18.2308V21M9 10.8462L1 9M25 23.1538L17 25.6154L13 24.3846V31.7692L17 33L33 28.0769V21M25 23.1538L1 15.7692V9M25 23.1538L33 21M33 5.92308V15.7692L25 13.3077V3.46154L33 5.92308ZM1 28.0769V18.2308L9 20.6923V30.5385L1 28.0769Z" stroke="white"/>
</svg>
